<svg xmlns="http://www.w3.org/2000/svg" xmlns:xlink="http://www.w3.org/1999/xlink" version="1.1" x="0px" y="0px" viewBox="0 0 100 125" style="enable-background:new 0 0 100 100;" xml:space="preserve"><path d="M10.96094,12h6.66309v4.5835h-6.5752c-0.55176,0-1,0.44727-1,0.99951l-0.03906,62.25  c0,0.26514,0.10547,0.51953,0.29297,0.70752c0.1875,0.1875,0.44141,0.29297,0.70703,0.29297h1.22266  c8.19043,0,16.34082,2.0083,24.22363,5.96875C40.67969,88.92432,45.23438,90,49.99219,90s9.3125-1.07568,13.53516-3.19775  c7.88379-3.96045,16.03418-5.96875,24.22363-5.96875h1.22266c0.55273,0,1-0.44775,1-1v-62.25c0-0.55225-0.44727-1-1-1h-6.59961V12  h6.58691c0.55273,0,1-0.44775,1-1s-0.44727-1-1-1h-78c-0.55273,0-1,0.44775-1,1S10.4082,12,10.96094,12z M87.97363,78.8335h-0.22266  c-8.50391,0-16.95605,2.07959-25.12207,6.18164C58.6875,86.99561,54.43555,88,49.99219,88s-8.69531-1.00439-12.6377-2.98486  c-8.16406-4.10205-16.61621-6.18164-25.12207-6.18164h-0.22168l0.03711-60.25h75.92578V78.8335z M80.37402,16.5835h-60.75V12h60.75  V16.5835z"/><path d="M66.5957,30.41211c-0.26758-0.08594-0.53906-0.14111-0.8125-0.16553c0.02051-0.52002-0.04395-1.04346-0.19336-1.55566  c-0.50488-1.7251-1.96094-3.05078-3.70898-3.37744c-1.85352-0.34717-3.6875,0.38721-4.77539,1.83057  c-0.8291-0.36182-1.78613-0.43652-2.6709-0.19775c-0.79492-0.94189-1.9209-1.55713-3.14258-1.68994  c-1.72559-0.18799-3.38086,0.54834-4.38965,1.8877c-1.01562-0.44238-2.2168-0.44238-3.22656-0.00488  c-0.82324-0.79883-1.92383-1.28027-3.08203-1.32373c-1.24121-0.03467-2.44336,0.39502-3.36035,1.24609  c-0.83301,0.77295-1.34766,1.79785-1.46973,2.91162c-1.37988,0.62402-2.32617,1.98779-2.38477,3.54248  c-0.04297,1.146,0.33789,2.19727,1.07324,2.96094c0.34216,0.35529,0.74841,0.62415,1.19708,0.81982l-0.00128,4.18848H33.5752  c-3.47168,0-6.29688,2.82471-6.29688,6.29688v9.3418c0,3.47217,2.8252,6.29688,6.29688,6.29688h2.0661l-0.00146,4.76172h-0.36835  c-0.55273,0-1,0.44775-1,1v4.36133c0,1.6665,1.35547,3.02197,3.02148,3.02197h27.95117c1.66602,0,3.02148-1.35547,3.02148-3.02197  v-4.36133c0-0.55225-0.44727-1-1-1h-0.3869L66.8703,37.35211c0.55231-0.22913,1.05255-0.57788,1.44415-1.0528  c0.70801-0.85742,0.99023-1.9834,0.77637-3.08936C68.8418,31.91797,67.86328,30.81982,66.5957,30.41211z M33.5752,61.42041  c-2.36914,0-4.29688-1.92773-4.29688-4.29688v-9.3418c0-2.36914,1.92773-4.29688,4.29688-4.29688h2.07214l-0.00543,17.93555H33.5752  z M66.26562,73.54346c0,0.56348-0.45801,1.02197-1.02148,1.02197H37.29297c-0.56348,0-1.02148-0.4585-1.02148-1.02197v-3.36133  h29.99414V73.54346z M37.63983,68.18213l0.00934-30.53369h15.39282c0.27344,0,0.49512,0.22217,0.49512,0.49561v6.78564  c0,2.1709,1.7666,3.9375,3.9375,3.9375s3.9375-1.7666,3.9375-3.9375v-6.78564c0-0.27344,0.22168-0.49561,0.49512-0.49561h2.96313  l0.00836,30.53369H37.63983z M66.77246,35.02637c-0.32715,0.39551-0.80762,0.62207-1.31934,0.62207h-3.5459  c-1.37598,0-2.49512,1.11963-2.49512,2.49561v6.78564c0,1.06836-0.86914,1.9375-1.9375,1.9375s-1.9375-0.86914-1.9375-1.9375  v-6.78564c0-1.37598-1.11914-2.49561-2.49512-2.49561H37.37695c-0.61914,0-1.13184-0.19336-1.48438-0.55908  c-0.35449-0.36865-0.53809-0.90088-0.51562-1.49805c0.03516-0.92383,0.68945-1.71533,1.59082-1.92432  c0.47168-0.10986,0.79785-0.54248,0.77246-1.02686c-0.00488-0.07959-0.00781-0.15967-0.00391-0.24609  c0.02734-0.71582,0.33105-1.37891,0.85645-1.86621c0.5-0.46338,1.14355-0.71533,1.82227-0.71533  c0.03418,0,0.06836,0.00049,0.10352,0.00195c0.85352,0.03174,1.62305,0.45801,2.11035,1.16943  c0.1543,0.22461,0.39355,0.37695,0.66211,0.42139c0.27148,0.04395,0.54492-0.02393,0.7627-0.18652  c0.75-0.56152,1.83887-0.52832,2.55078,0.06885c0.24121,0.20312,0.56641,0.27881,0.87012,0.20752  c0.30664-0.07178,0.56152-0.28369,0.68848-0.57178c0.5-1.13965,1.68359-1.80908,2.91211-1.67871  c0.87598,0.09521,1.6709,0.62354,2.12695,1.41357c0.26758,0.46484,0.85645,0.63623,1.33301,0.38428  c0.73145-0.38672,1.63965-0.28467,2.27246,0.24512c0.24121,0.20264,0.56738,0.27881,0.87012,0.20752  c0.30664-0.07178,0.56152-0.28369,0.68848-0.57178c0.53223-1.21436,1.8291-1.88916,3.14746-1.64404  c1.01465,0.18994,1.86133,0.96436,2.15625,1.97314c0.17676,0.60205,0.15527,1.2041-0.06152,1.78955  c-0.13477,0.36426-0.04688,0.77344,0.22559,1.0498c0.27344,0.27734,0.68359,0.36914,1.04688,0.24023  c0.3623-0.12939,0.7334-0.13428,1.10254-0.01562c0.58203,0.18701,1.03125,0.68652,1.14453,1.27295  C67.22949,34.11475,67.10254,34.62549,66.77246,35.02637z"/><path d="M43.07812,42.83496c-0.55273,0-1,0.44775-1,1v18.95117c0,0.55225,0.44727,1,1,1s1-0.44775,1-1V43.83496  C44.07812,43.28271,43.63086,42.83496,43.07812,42.83496z"/></svg>